Coordinates
version=1
nRows=54
nColumns=12
inDegrees=yes

Units are S.I. units (second, meters, Newtons, ...)
Angles are in degrees

endheader
time	SC_y	SC_z	SC_x	AC_y	AC_z	AC_x	GH_y	GH_z	GH_yy	EL_x	PS_y
       0.0              -20.38          34.39          49.39          52.92          5.176          3.114          38.82           58.6         -156.5           70.0          137.9
   0.02346              -20.39          34.38          49.39          52.92          5.174          3.113          38.81           58.6         -156.5          69.99          137.9
   0.04691              -20.39          34.38          49.39          52.92          5.173          3.112           38.8           58.6         -156.4          69.99          137.8
   0.07037              -20.39          34.38           49.4          52.92          5.171          3.111          38.79           58.6         -156.4          69.99          137.8
   0.09383              -20.39          34.38           49.4          52.92           5.17           3.11          38.78           58.6         -156.3          69.98          137.8
    0.1173               -20.4          34.38           49.4          52.92          5.168          3.109          38.77           58.6         -156.3          69.98          137.8
    0.1407               -20.4          34.37           49.4          52.92          5.166          3.108          38.75           58.6         -156.2          69.98          137.8
    0.1642               -20.4          34.37           49.4          52.92          5.164          3.107          38.74           58.6         -156.2          69.97          137.7
    0.1877              -20.41          34.37          49.41          52.91          5.162          3.105          38.72           58.6         -156.1          69.97          137.7
    0.2111              -20.41          34.36          49.41          52.91          5.159          3.104          38.71           58.6         -156.0          69.96          137.7
    0.2346              -20.41          34.36          49.41          52.91          5.157          3.102          38.69           58.6         -156.0          69.96          137.7
     0.258              -20.42          34.36          49.41          52.91          5.154          3.101          38.67          58.61         -155.9          69.95          137.6
    0.2815              -20.42          34.35          49.42          52.91          5.151          3.099          38.65          58.61         -155.8          69.94          137.6
    0.3049              -20.43          34.35          49.42          52.91          5.148          3.097          38.62          58.61         -155.7          69.94          137.6
    0.3284              -20.43          34.35          49.43          52.91          5.144          3.095           38.6          58.61         -155.6          69.93          137.6
    0.3519              -20.44          34.34          49.43          52.91           5.14          3.093          38.57          58.61         -155.5          69.92          137.5
    0.3753              -20.44          34.34          49.43           52.9          5.136           3.09          38.54          58.61         -155.4          69.91          137.5
    0.3988              -20.45          34.33          49.44           52.9          5.132          3.088          38.51          58.61         -155.3           69.9          137.4
    0.4222              -20.46          34.32          49.44           52.9          5.127          3.085          38.48          58.61         -155.2          69.89          137.4
    0.4457              -20.47          34.32          49.45           52.9          5.122          3.082          38.44          58.61         -155.0          69.88          137.3
    0.4691              -20.47          34.31          49.46           52.9          5.116          3.078           38.4          58.61         -154.9          69.87          137.3
    0.4926              -20.48           34.3          49.46          52.89          5.109          3.074          38.35          58.62         -154.7          69.85          137.2
    0.5161              -20.49          34.29          49.47          52.89          5.102           3.07           38.3          58.62         -154.5          69.84          137.1
    0.5395              -20.51          34.28          49.48          52.89          5.094          3.065          38.25          58.62         -154.3          69.82          137.0
     0.563              -20.52          34.27          49.49          52.88          5.085           3.06          38.19          58.62         -154.0           69.8          137.0
    0.5864              -20.53          34.26           49.5          52.88          5.076          3.054          38.12          58.62         -153.8          69.78          136.9
    0.6099              -20.55          34.24          49.51          52.87          5.065          3.048          38.04          58.63         -153.5          69.75          136.8
    0.6333              -20.57          34.23          49.53          52.87          5.052           3.04          37.95          58.63         -153.1          69.73          136.6
    0.6568              -20.59          34.21          49.54          52.86          5.038          3.032          37.85          58.63         -152.8          69.69          136.5
    0.6803              -20.61          34.19          49.56          52.86          5.022          3.022          37.74          58.64         -152.3          69.66          136.3
    0.7037              -20.64          34.17          49.58          52.85          5.004          3.012          37.62          58.64         -151.8          69.62          136.1
    0.7272              -20.67          34.14           49.6          52.84          4.984          2.999          37.47          58.65         -151.3          69.57          135.9
    0.7506              -20.71          34.11          49.63          52.83           4.96          2.985           37.3          58.65         -150.6          69.52          135.7
    0.7741              -20.75          34.08          49.66          52.82          4.932          2.968           37.1          58.66         -149.9          69.46          135.4
    0.7975               -20.8          34.04           49.7          52.81          4.899          2.949          36.87          58.67         -149.0          69.39          135.1
     0.821              -20.86          33.99          49.74          52.79          4.861          2.926           36.6          58.68         -147.9           69.3          134.7
    0.8445              -20.93          33.93          49.79          52.77          4.815          2.899          36.28          58.69         -146.7           69.2          134.2
    0.8679              -21.01          33.86          49.85          52.75           4.76          2.866           35.9           58.7         -145.2          69.08          133.7
    0.8914              -21.11          33.78          49.92          52.72          4.694          2.827          35.43          58.72         -143.4          68.94          133.0
    0.9148              -21.23          33.67          50.01          52.69          4.613          2.778          34.86          58.74         -141.2          68.76          132.2
    0.9383              -21.38          33.55          50.12          52.65          4.513          2.719          34.16          58.77         -138.5          68.54          131.2
    0.9617              -21.57          33.39          50.26           52.6          4.389          2.644          33.28           58.8         -135.1          68.27          130.0
    0.9852               -21.8          33.19          50.43          52.54          4.232          2.551          32.17          58.84         -130.8          67.92          128.4
     1.009               -22.1          32.94          50.65          52.46          4.032          2.432          30.77          58.89         -125.4          67.48          126.4
     1.032              -22.49          32.62          50.93          52.35          3.777           2.28          28.97          58.95         -118.5          66.92          123.8
     1.056              -22.98           32.2          51.29          52.22          3.449          2.084          26.66          59.03         -109.6           66.2          120.5
     1.079              -23.61          31.67          51.75          52.05          3.031          1.835          23.72          59.14         -98.23          65.28          116.3
     1.102               -24.4          31.01          52.33          51.83          2.505          1.521          20.01          59.27         -83.94          64.12          111.1
     1.126              -25.36           30.2          53.04          51.57          1.864          1.139          15.49          59.43         -66.53          62.71          104.6
     1.149              -26.48          29.26          53.86          51.27           1.12         0.6955          10.26          59.62         -46.34          61.08          97.17
     1.173              -27.69          28.24          54.74          50.95         0.3157         0.2156          4.592          59.82         -24.49          59.31          89.09
     1.196              -28.89          27.22          55.63          50.62        -0.4891        -0.2643         -1.076          60.03         -2.628          57.54          81.01
      1.22              -30.01          26.28          56.45          50.32         -1.232        -0.7075          -6.31          60.21          17.56           55.9          73.56
     1.243              -30.97          25.47          57.15          50.06         -1.873          -1.09         -10.83          60.37          34.97          54.49          67.12
